<svg xmlns="http://www.w3.org/2000/svg" viewBox="0 0 82.06 82.06"><defs><style>.cls-1{fill:#141414;}</style></defs><title>CM_ID_Black_Rgb</title><g id="Layer_1" data-name="Layer 1"><path class="cls-1" d="M32.48,57.7h-11V56h4.62V36.76H21.45V35.05h6.19l.22,2.69a6.42,6.42,0,0,1,3.34-2.63v1.77c-1.93.89-3.16,2.79-3.16,5.71V56h4.44ZM39,47.56c-4.48-.68-7.06-3.58-7.06-8.19V32.51c0-5.29,3.37-8.34,9.11-8.34,3.31,0,5.83,1.16,7.17,3.23l.27-2.79h1.57v7.18h-2V31.7c0-3.59-2.6-5.83-7-5.83-4.58,0-7.23,2.42-7.23,6.5v7.09A6,6,0,0,0,39,45.81Zm11.06-7.43c0,4.28-2.83,7.09-7.6,7.52V45.93c3.58-.42,5.63-2.57,5.63-5.66v-.18h2ZM59.93,57.7H53.38V42.23c0-4.17-2.11-5.92-5.65-5.92s-6,2.1-6,6.28V56h4.44v1.7H39.75V42.23c0-3.93-1.91-5.71-5.09-5.9V34.61c3.2.09,5.44,1.31,6.43,3.89,1.21-2.55,3.68-3.9,6.86-3.9,4.71,0,7.4,2.38,7.4,7.67V56h4.58Z"/><path class="cls-1" d="M71,71H11V11H71ZM13,69.1H69.1V13H13Z"/></g></svg>