<?xml version="1.0" standalone="no"?>
<!DOCTYPE svg PUBLIC "-//W3C//DTD SVG 20010904//EN"
 "http://www.w3.org/TR/2001/REC-SVG-20010904/DTD/svg10.dtd">
<svg version="1.0" xmlns="http://www.w3.org/2000/svg"
 width="330.000000pt" height="330.000000pt" viewBox="0 0 330.000000 330.000000"
 preserveAspectRatio="xMidYMid meet">
<metadata>
Created by potrace 1.11, written by Peter Selinger 2001-2013
</metadata>
<g transform="translate(0.000000,330.000000) scale(0.100000,-0.100000)"
fill="#000000" stroke="none">
<path d="M483 2852 l-33 -3 0 -1200 0 -1199 1201 2 1202 3 -1 1185 c-1 652 -1
1192 -2 1200 0 13 -137 15 -1167 15 -643 0 -1183 -1 -1200 -3z m2284 -86 c3
-3 5 -1337 3 -2123 l0 -113 -1120 0 -1120 0 0 1120 0 1119 123 3 c187 4 2109
-1 2114 -6z"/>
<path d="M1588 2325 c-2 -2 -20 -6 -41 -9 -128 -20 -230 -117 -253 -240 -3
-17 -6 -119 -6 -228 0 -236 10 -281 77 -356 43 -48 109 -85 175 -98 29 -6 30
-5 30 30 0 26 -5 38 -17 42 -86 25 -153 89 -174 166 -13 50 -13 396 0 445 16
57 46 99 91 129 103 68 289 63 385 -11 37 -28 75 -101 75 -145 0 -28 2 -30 40
-30 25 0 40 5 41 13 0 13 0 231 -1 260 0 12 -8 17 -30 17 -16 0 -31 -4 -31
-10 -1 -5 -3 -14 -4 -20 -1 -5 -3 -24 -4 -42 l-1 -32 -32 31 c-35 33 -95 65
-143 78 -30 7 -171 15 -177 10z"/>
<path d="M1394 1876 c0 -33 3 -36 36 -42 62 -11 116 -49 142 -101 23 -47 23
-52 24 -398 l1 -350 130 -2 129 -1 2 34 c3 38 10 36 -115 36 l-63 0 0 290 c0
175 4 306 11 332 23 91 106 155 208 161 80 5 137 -12 181 -54 59 -56 63 -82
64 -462 l1 -336 130 1 130 1 3 33 c3 25 -1 32 -15 33 -10 0 -52 1 -93 2 l-75
2 0 315 c-1 351 -7 387 -68 453 -58 62 -108 81 -222 82 -90 0 -106 -3 -158
-28 -38 -19 -69 -44 -92 -74 -19 -25 -35 -41 -35 -34 0 21 -73 92 -116 111
-23 11 -64 22 -91 26 l-49 6 0 -36z"/>
<path d="M887 1892 c-12 -3 -17 -13 -17 -38 l0 -34 90 0 90 0 0 -130 c1 -71 1
-168 1 -215 0 -47 0 -162 -1 -256 l0 -170 -57 1 c-125 3 -123 4 -123 -34 l0
-33 220 -1 220 0 0 34 0 33 -87 3 -88 3 0 305 c0 302 1 305 24 354 14 28 40
60 62 75 33 22 38 32 39 63 0 31 -3 36 -17 31 -28 -10 -66 -36 -89 -60 -12
-13 -24 -23 -28 -23 -3 0 -6 20 -6 45 0 42 -2 45 -27 46 -119 3 -191 4 -206 1z"/>
<path d="M1926 1642 c-11 -86 -86 -160 -178 -177 -36 -7 -38 -9 -38 -45 l0
-38 35 8 c19 4 35 6 35 4 0 -12 120 52 149 79 44 42 81 121 81 175 l0 42 -39
0 c-38 0 -38 0 -45 -48z"/>
</g>
</svg>
