<?xml version="1.0" standalone="no"?>
<!DOCTYPE svg PUBLIC "-//W3C//DTD SVG 20010904//EN"
 "http://www.w3.org/TR/2001/REC-SVG-20010904/DTD/svg10.dtd">
<svg version="1.0" xmlns="http://www.w3.org/2000/svg"
 width="700.000000pt" height="700.000000pt" viewBox="0 0 700.000000 700.000000"
 preserveAspectRatio="xMidYMid meet">
<metadata>
Created by potrace 1.11, written by Peter Selinger 2001-2013
</metadata>
<g transform="translate(0.000000,700.000000) scale(0.100000,-0.100000)"
fill="#000000" stroke="none">
<path d="M988 6062 l-48 -3 0 -52 c-1 -76 -1 -4670 0 -4883 l0 -181 2548 0
c1401 0 2552 2 2558 4 8 3 11 704 11 2559 l1 2554 -137 0 c-2017 3 -4898 4
-4933 2z m4907 -2547 c0 -1303 -1 -2379 -3 -2390 -3 -20 -11 -20 -2390 -20
l-2387 1 -3 2392 -2 2392 2392 -2 2392 -3 1 -2370z"/>
<path d="M3302 4920 c-239 -42 -409 -158 -500 -342 -70 -143 -76 -188 -76
-628 0 -425 2 -452 39 -568 67 -212 244 -369 476 -421 30 -7 61 -15 70 -17 13
-4 16 8 16 70 l1 75 -67 20 c-168 51 -303 191 -358 372 -14 46 -16 113 -16
449 0 344 2 404 18 465 36 144 120 254 244 318 109 57 169 70 328 73 121 2
155 -1 237 -21 246 -61 374 -214 385 -462 1 -9 25 -13 86 -13 l85 0 0 305 0
305 -64 0 c-36 0 -67 -3 -69 -7 -3 -5 -7 -46 -11 -93 -4 -47 -8 -94 -11 -105
-2 -11 -4 -22 -4 -24 -1 -3 -12 10 -25 28 -70 95 -220 184 -366 216 -110 25
-293 27 -418 5z"/>
<path d="M2959 4047 c-5 -9 -2 -140 3 -143 4 -3 24 -7 45 -10 151 -19 271
-100 328 -219 53 -112 54 -133 55 -889 0 -385 2 -702 5 -704 3 -3 371 -5 513
-3 l32 1 0 70 c0 69 0 70 -27 71 -16 1 -100 2 -188 3 l-160 1 -3 595 c-2 658
1 706 57 826 35 74 115 160 182 194 108 56 304 76 428 44 190 -49 270 -143
318 -374 3 -14 5 -339 6 -723 0 -413 4 -700 10 -704 7 -4 437 -7 530 -4 14 1
17 11 17 74 l0 72 -190 -1 c-166 -1 -190 1 -194 15 -3 9 -5 284 -4 612 0 327
-3 624 -7 660 -37 360 -260 546 -640 534 -154 -5 -221 -21 -328 -77 -73 -38
-185 -145 -216 -207 l-23 -44 -31 56 c-45 80 -75 115 -132 157 -64 46 -123 73
-205 93 -53 13 -177 29 -181 24z"/>
<path d="M1830 3937 l0 -72 198 0 197 -1 0 -819 0 -820 -180 -2 c-99 0 -188
-1 -198 -2 -16 -1 -18 -10 -15 -72 l3 -71 450 0 c248 1 458 1 468 1 14 1 17
11 17 71 0 39 -4 70 -10 71 -5 0 -86 2 -180 3 -93 2 -175 3 -180 4 -17 3 -12
1179 5 1268 30 156 109 278 217 334 40 22 45 35 40 118 -4 49 -6 52 -25 46
-46 -13 -131 -71 -188 -128 -32 -32 -59 -62 -59 -67 0 -5 -4 -9 -9 -9 -5 0 -9
19 -10 43 -1 23 -3 54 -5 70 -1 15 -3 45 -4 67 l-2 40 -265 0 -265 0 0 -73z"/>
<path d="M4100 3543 c0 -52 -25 -149 -51 -202 -55 -114 -205 -217 -359 -246
-74 -14 -71 -10 -68 -88 l3 -72 30 3 c79 8 208 47 285 85 115 56 212 152 263
257 36 75 67 197 67 265 l0 35 -85 0 -85 0 0 -37z"/>
</g>
</svg>
