<svg xmlns="http://www.w3.org/2000/svg" viewBox="0 0 251.39 78.37"><defs><style>.cls-1{fill:#cdaa50;}</style></defs><title>CM_Text_Gold_Rgb</title><g id="Layer_1" data-name="Layer 1"><path class="cls-1" d="M41.7,37.32A9.93,9.93,0,0,1,32.53,43,10.34,10.34,0,1,1,41.7,28.2H39.3a8,8,0,0,0-6.8-3.86,8.14,8.14,0,0,0-8.18,8.34,8.13,8.13,0,0,0,15,4.64Z"/><path class="cls-1" d="M59.71,42.69h-2v-3a6.44,6.44,0,0,1-5.94,3.4,7.39,7.39,0,0,1-7.53-7.67,7.41,7.41,0,0,1,7.53-7.67,6.38,6.38,0,0,1,5.94,3.46V28.17h2Zm-13.5-7.23A5.67,5.67,0,0,0,52,41.24a5.43,5.43,0,0,0,5.24-3.54,5.55,5.55,0,0,0,.49-2.29,5.18,5.18,0,0,0-.46-2.32A5.6,5.6,0,0,0,52,29.6a5.69,5.69,0,0,0-5.78,5.83Z"/><path class="cls-1" d="M64.15,28.17H66v2.29a5.2,5.2,0,0,1,4.59-2.7,5.12,5.12,0,0,1,4,1.65,7.58,7.58,0,0,1,.94,1.51,6.51,6.51,0,0,1,1.05-1.54,5.46,5.46,0,0,1,4-1.62,5.35,5.35,0,0,1,3.91,1.46c1.27,1.27,1.65,2.83,1.65,5.4v8.07h-2v-8a5.7,5.7,0,0,0-1.08-3.86,3.43,3.43,0,0,0-2.89-1.21A3.8,3.8,0,0,0,77,31.14a5.13,5.13,0,0,0-.86,3.48v8.07h-2V34.62a5.54,5.54,0,0,0-.76-3.46,3.75,3.75,0,0,0-3.19-1.54,3.58,3.58,0,0,0-3.08,1.48,5.63,5.63,0,0,0-1,3.48v8.1h-2Z"/><path class="cls-1" d="M91.39,36a5.53,5.53,0,0,0,5.67,5.37,5.37,5.37,0,0,0,5-3h2.08a7.69,7.69,0,0,1-2.94,3.54,7.6,7.6,0,0,1-4.13,1.19,7.67,7.67,0,0,1,0-15.33A7.44,7.44,0,0,1,104.61,36Zm11.26-1.59a5.66,5.66,0,0,0-11.23,0Z"/><path class="cls-1" d="M108,28.17h1.89v2.38a4.94,4.94,0,0,1,4.64-2.78v2h-.19c-2.81,0-4.37,1.75-4.37,5v7.91h-2Z"/><path class="cls-1" d="M130.67,42.69h-2v-3a6.44,6.44,0,0,1-5.94,3.4,7.39,7.39,0,0,1-7.53-7.67,7.41,7.41,0,0,1,7.53-7.67,6.38,6.38,0,0,1,5.94,3.46V28.17h2Zm-13.5-7.23A5.67,5.67,0,0,0,123,41.24a5.43,5.43,0,0,0,5.24-3.54,5.55,5.55,0,0,0,.49-2.29,5.18,5.18,0,0,0-.46-2.32,5.6,5.6,0,0,0-5.32-3.48,5.69,5.69,0,0,0-5.78,5.83Z"/><path class="cls-1" d="M135.1,28.17H137v2.29a5.2,5.2,0,0,1,4.59-2.7,5.12,5.12,0,0,1,4,1.65,7.58,7.58,0,0,1,.94,1.51,6.51,6.51,0,0,1,1.05-1.54,5.46,5.46,0,0,1,4-1.62,5.35,5.35,0,0,1,3.91,1.46c1.27,1.27,1.65,2.83,1.65,5.4v8.07h-2v-8A5.7,5.7,0,0,0,154,30.84a3.43,3.43,0,0,0-2.89-1.21,3.8,3.8,0,0,0-3.19,1.51,5.13,5.13,0,0,0-.86,3.48v8.07h-2V34.62a5.54,5.54,0,0,0-.76-3.46,3.75,3.75,0,0,0-3.19-1.54,3.58,3.58,0,0,0-3.08,1.48,5.63,5.63,0,0,0-1,3.48v8.1h-2Z"/><path class="cls-1" d="M176,42.69h-2v-3a6.44,6.44,0,0,1-5.94,3.4,7.39,7.39,0,0,1-7.53-7.67,7.41,7.41,0,0,1,7.53-7.67A6.38,6.38,0,0,1,174,31.22V28.17h2Zm-13.5-7.23a5.67,5.67,0,0,0,5.83,5.78,5.43,5.43,0,0,0,5.24-3.54,5.55,5.55,0,0,0,.49-2.29,5.18,5.18,0,0,0-.46-2.32,5.6,5.6,0,0,0-5.32-3.48,5.69,5.69,0,0,0-5.78,5.83Z"/><path class="cls-1" d="M180.51,22.72h2V34.14l6.53-6h2.46l-7,6.37,7.32,8.15h-2.35l-7-7.72v7.72h-2Z"/><path class="cls-1" d="M194.61,36a5.53,5.53,0,0,0,5.67,5.37,5.37,5.37,0,0,0,5-3h2.08a7.69,7.69,0,0,1-2.94,3.54,7.6,7.6,0,0,1-4.13,1.19,7.67,7.67,0,0,1,0-15.33A7.44,7.44,0,0,1,207.83,36Zm11.26-1.59a5.66,5.66,0,0,0-11.23,0Z"/><path class="cls-1" d="M211.21,28.17h1.89v2.38a4.94,4.94,0,0,1,4.64-2.78v2h-.19c-2.81,0-4.37,1.75-4.37,5v7.91h-2Z"/><path class="cls-1" d="M227,31.82a2.27,2.27,0,0,0-2.48-2.4A2.3,2.3,0,0,0,222,31.76c.05,1.38,1.11,1.94,2.86,2.46,2.08.57,4.4,1.16,4.51,4.26a4.52,4.52,0,0,1-4.8,4.62c-2.35,0-4.94-1.49-5-4.54h2a2.87,2.87,0,0,0,3,2.89,2.69,2.69,0,0,0,2.81-2.73c-.05-1.65-1.13-2.32-3.64-3.05-2.08-.62-3.7-1.46-3.75-3.75,0-2.62,2.08-4.16,4.54-4.16a4.11,4.11,0,0,1,4.43,4Z"/><path class="cls-1" d="M32.33,52.21l-.5,0c-.09-.8-.42-1.21-1-1.21H29v2.12h1q.49,0,.56-1H31l-.12,2.65h-.47q-.09-1-.51-1H29v1.79q0,.37.94.37v.46H27V55.9q.71,0,.71-.37V51.25c0-.25-.24-.37-.71-.37v-.47h5.29Z"/><path class="cls-1" d="M45.25,50.88c-.48,0-.71.12-.71.37v4.28q0,.37.71.37v.46H42.59V55.9q.72,0,.72-.37V51.25c0-.25-.24-.37-.72-.37v-.47h2.66Z"/><path class="cls-1" d="M62.11,50.88c-.47,0-.71.12-.71.37v5.1H59.92l-3-4.79v4q0,.37.71.37v.46H55.53V55.9q.71,0,.71-.37V51.25c0-.25-.24-.37-.71-.37v-.47h2.14l3.06,4.91V51.25c0-.25-.24-.37-.71-.37v-.47h2.09Z"/><path class="cls-1" d="M75,50.88c-.59,0-.89.12-.89.37v4.48h1.57a1.68,1.68,0,0,0,.54-.08,1,1,0,0,0,.42-.28,1.43,1.43,0,0,0,.28-.52,3.59,3.59,0,0,0,.15-.82l.53.06-.19,2.28H72.22V55.9q.71,0,.71-.37V51.25c0-.25-.24-.37-.71-.37v-.47H75Z"/><path class="cls-1" d="M93.62,55.65q.08.24.66.24v.46H91.35v-.46h.7c.15,0,.23-.05.23-.15a.33.33,0,0,0,0-.09l-.32-.87H89.48l-.3.8a.3.3,0,0,0,0,.1c0,.14.12.21.35.21H90v.46H87.83v-.47a1.62,1.62,0,0,0,.5-.06.3.3,0,0,0,.2-.17l2-5.25h1.16Zm-3.93-1.46h2l-1-2.81Z"/><path class="cls-1" d="M111.05,50.88c-.47,0-.71.12-.71.37v5.1h-1.48l-3-4.79v4q0,.37.71.37v.46h-2.09V55.9q.71,0,.71-.37V51.25c0-.25-.24-.37-.71-.37v-.47h2.14l3.06,4.91V51.25c0-.25-.24-.37-.71-.37v-.47h2.09Z"/><path class="cls-1" d="M124.27,50.42a6.7,6.7,0,0,1,1.28.11,2.06,2.06,0,0,1,.92.41,1.8,1.8,0,0,1,.56.86,4.62,4.62,0,0,1,.18,1.44,5.19,5.19,0,0,1-.18,1.5,2.21,2.21,0,0,1-.56,1,2.12,2.12,0,0,1-.92.51,4.92,4.92,0,0,1-1.28.15h-3.12V55.9q.71,0,.71-.37V51.25c0-.25-.24-.37-.71-.37v-.47Zm-1.18.63v4.69h1.31a1.54,1.54,0,0,0,.75-.16,1.22,1.22,0,0,0,.48-.48,2.27,2.27,0,0,0,.25-.78,7,7,0,0,0,.07-1.06,6.1,6.1,0,0,0-.07-1,1.71,1.71,0,0,0-.25-.68,1.05,1.05,0,0,0-.48-.39,2,2,0,0,0-.75-.12Z"/></g></svg>